<?xml version="1.0" encoding="UTF-8"?>
<svg id="Layer_1" xmlns="http://www.w3.org/2000/svg" version="1.1" viewBox="0 0 196 150">
  <!-- Generator: Adobe Illustrator 29.2.1, SVG Export Plug-In . SVG Version: 2.1.0 Build 116)  -->
  <defs>
    <style>
      .st0 {
        fill: #231f20;
      }

      .st1 {
        fill: #0c050d;
      }

      .st2 {
        fill: #87272a;
      }

      .st3 {
        fill: #f4803c;
      }
    </style>
  </defs>
  <g>
    <path class="st1" d="M171.67,77.88v4.5h2.27c2.02,0,3.04-.75,3.04-2.25,0-.84-.27-1.43-.81-1.76-.54-.33-1.47-.49-2.77-.49h-1.72ZM166.8,74.33h8.72c1.98,0,3.55.57,4.72,1.71,1.17,1.14,1.75,2.48,1.75,4.04s-.58,2.99-1.73,4.14c-1.15,1.15-2.72,1.72-4.71,1.72h-3.88v7.79h-4.87v-19.39Z"/>
    <polygon class="st1" points="173.38 119.14 173.38 110.09 165.67 99.75 171.58 99.75 175.82 105.84 180.08 99.75 185.96 99.75 178.25 110.1 178.25 119.14 173.38 119.14"/>
    <g>
      <path class="st3" d="M128.23,66.11h-.05c0-.53,0-1.06-.03-1.6.03.51.05,1.05.07,1.6Z"/>
      <path class="st2" d="M95.88,17.57c-2.85-.7-5.84-1.07-8.9-1.07-18.89,0-34.47,14-36.77,32.11H9.53C21.08,27.02,43.98,12.32,70.35,12.32c2.53,0,5.04.14,7.5.4l.28.03c4.77.58,11.19,1.9,17.76,4.82Z"/>
      <polygon class="st1" points="9.68 54.51 9.68 57.03 14.71 57.03 14.71 68.3 18.18 68.3 18.18 57.03 23.21 57.03 23.21 54.51 9.68 54.51"/>
      <polygon class="st1" points="38.75 54.51 38.75 68.3 35.29 68.3 35.29 62.72 28.36 62.72 28.36 68.3 24.89 68.3 24.89 54.51 28.36 54.51 28.36 60.04 35.29 60.04 35.29 54.51 38.75 54.51"/>
      <path class="st1" d="M52.24,68.3h-10.91v-13.79h8.59c0,.31-.01.63-.01.94,0,.53.01,1.06.03,1.59h-5.14v2.89h5.38c.1.85.24,1.69.4,2.52h-5.78v3.32h6.59c.25.86.54,1.7.85,2.53Z"/>
      <polygon class="st1" points="24.64 74.33 24.64 86.18 14.2 74.33 9.74 74.33 9.74 93.72 14.61 93.72 14.61 81.3 25.4 93.72 29.51 93.72 29.51 74.33 24.64 74.33"/>
      <path class="st1" d="M44.27,89.95c1.85,0,3.34-.54,4.46-1.63,1.13-1.09,1.69-2.51,1.69-4.28s-.56-3.21-1.69-4.29c-1.13-1.08-2.62-1.62-4.46-1.62s-3.35.54-4.49,1.62c-1.13,1.08-1.7,2.51-1.7,4.29s.57,3.19,1.7,4.28c1.13,1.09,2.63,1.63,4.49,1.63M44.27,74.08c3.33,0,6.03,1,8.09,2.99,2.06,1.99,3.09,4.31,3.09,6.96s-1.05,5.01-3.14,6.98c-2.09,1.97-4.77,2.96-8.05,2.96s-6.01-.98-8.09-2.94c-2.08-1.96-3.12-4.29-3.12-6.99s1.03-4.98,3.1-6.97c2.07-1.99,4.77-2.98,8.11-2.98"/>
      <path class="st1" d="M63.85,77.88v4.41h2.58c.82,0,1.47-.19,1.95-.58.48-.38.72-.93.72-1.64,0-1.46-.93-2.19-2.79-2.19h-2.46ZM58.98,74.33h8.73c1.89,0,3.43.54,4.62,1.63,1.18,1.09,1.78,2.4,1.78,3.95,0,2.14-1.12,3.72-3.36,4.74.98.44,1.91,1.64,2.8,3.58.88,1.94,1.74,3.77,2.56,5.49h-5.34c-.32-.64-.87-1.86-1.67-3.65-.79-1.79-1.47-2.95-2.04-3.46-.56-.51-1.17-.76-1.81-.76h-1.4v7.87h-4.87v-19.39Z"/>
      <polygon class="st1" points="95.05 74.33 95.05 77.88 87.97 77.88 87.97 93.72 83.1 93.72 83.1 77.88 76.02 77.88 76.02 74.33 95.05 74.33"/>
      <polygon class="st1" points="117.9 74.33 117.9 93.72 113.03 93.72 113.03 85.88 103.29 85.88 103.29 93.72 98.42 93.72 98.42 74.33 103.29 74.33 103.29 82.12 113.03 82.12 113.03 74.33 117.9 74.33"/>
      <path class="st1" d="M139.63,87.81v4.23c-2.44,1.29-5.01,1.93-7.68,1.93-3.47,0-6.23-.95-8.29-2.85-2.06-1.9-3.09-4.24-3.09-7.03s1.08-5.15,3.25-7.09c2.17-1.94,5-2.92,8.5-2.92,2.79,0,5.15.57,7.08,1.71v4.32c-2.37-1.32-4.61-1.98-6.73-1.98s-3.78.55-5.1,1.66c-1.32,1.11-1.98,2.51-1.98,4.23s.65,3.14,1.95,4.26c1.3,1.12,2.97,1.68,5,1.68,1.01,0,1.98-.13,2.91-.4.93-.26,2.32-.84,4.17-1.74"/>
      <path class="st1" d="M155.71,86.5l-3.17-7.54-2.87,7.54h6.04ZM155.29,74.33l8.68,19.39h-5.24l-1.61-3.83h-8.76l-1.46,3.83h-5.16l7.9-19.39h5.64Z"/>
      <path class="st1" d="M24.21,99.75h4.87v11.01c0,2.83-.84,4.98-2.53,6.44-1.69,1.46-4.1,2.19-7.23,2.19s-5.5-.74-7.21-2.22c-1.71-1.48-2.57-3.61-2.57-6.38v-11.03h4.88v11.14c0,1.35.45,2.43,1.34,3.25.89.81,2.06,1.22,3.51,1.22s2.7-.42,3.6-1.25c.9-.83,1.35-2.02,1.35-3.55v-10.81Z"/>
      <polygon class="st1" points="52.36 99.75 52.36 119.14 48.24 119.14 37.45 106.72 37.45 119.14 32.58 119.14 32.58 99.75 37.05 99.75 47.49 111.6 47.49 99.75 52.36 99.75"/>
      <rect class="st1" x="56.17" y="99.75" width="4.87" height="19.39"/>
      <polygon class="st1" points="83.23 99.75 74.2 119.39 72.09 119.39 62.61 99.75 67.92 99.75 73.09 110.83 77.99 99.75 83.23 99.75"/>
      <polygon class="st1" points="99.14 115.59 99.14 119.14 84.72 119.14 84.72 99.75 98.94 99.75 98.94 103.3 89.59 103.3 89.59 107.37 98.51 107.37 98.51 110.92 89.59 110.92 89.59 115.59 99.14 115.59"/>
      <path class="st1" d="M107.36,103.3v4.41h2.58c.82,0,1.47-.19,1.95-.58.48-.38.72-.93.72-1.64,0-1.46-.93-2.19-2.79-2.19h-2.46ZM102.49,99.75h8.73c1.89,0,3.43.54,4.62,1.63,1.18,1.09,1.78,2.4,1.78,3.95,0,2.14-1.12,3.72-3.36,4.74.98.44,1.91,1.64,2.8,3.58.88,1.94,1.74,3.77,2.56,5.49h-5.34c-.32-.64-.87-1.86-1.67-3.65-.79-1.79-1.47-2.95-2.04-3.46-.56-.51-1.17-.76-1.81-.76h-1.4v7.87h-4.87v-19.39Z"/>
      <path class="st1" d="M134.77,101v3.79c-2.59-1.16-4.66-1.74-6.2-1.74-.88,0-1.57.15-2.09.44-.52.29-.78.68-.78,1.16,0,.37.19.72.56,1.05.37.33,1.28.76,2.73,1.29,1.45.53,2.6,1.02,3.47,1.47.87.45,1.62,1.09,2.25,1.91.63.82.94,1.87.94,3.12,0,1.79-.69,3.22-2.06,4.29-1.38,1.06-3.19,1.6-5.44,1.6-2.43,0-4.78-.62-7.05-1.87v-4.18c1.31.87,2.46,1.5,3.47,1.9,1.01.4,2.08.6,3.2.6,1.91,0,2.87-.6,2.87-1.79,0-.41-.19-.79-.57-1.15-.38-.36-1.3-.8-2.76-1.32-1.46-.52-2.62-1-3.47-1.44-.85-.44-1.59-1.08-2.21-1.9-.62-.82-.93-1.88-.93-3.17,0-1.67.68-3.01,2.03-4.03,1.35-1.02,3.16-1.53,5.43-1.53,2.09,0,4.3.5,6.62,1.5"/>
      <rect class="st1" x="138.24" y="99.75" width="4.87" height="19.39"/>
      <polygon class="st1" points="164.89 99.75 164.89 103.3 157.81 103.3 157.81 119.14 152.94 119.14 152.94 103.3 145.86 103.3 145.86 99.75 164.89 99.75"/>
      <path class="st3" d="M128.15,64.43c-.07-1.25-.14-2.29-.16-2.75.08.92.14,1.84.16,2.75Z"/>
      <path class="st3" d="M184.99,68.3h-56.7c0-.7-.03-1.45-.06-2.19-.02-.55-.05-1.09-.07-1.6v-.08c-.03-.91-.08-1.83-.17-2.75v-.17s-.02-.1-.02-.1c-2.13-23.84-20.45-50.7-57.67-50.7-9.44,0-18.44,1.84-26.67,5.17,14.24-7.85,30.63-12.32,48.07-12.32,42.02,0,77.93,25.93,92.35,62.54l.94,2.19Z"/>
    </g>
  </g>
  <polyline class="st0" points="9.53 129.63 185.96 129.63 185.96 128.44 9.53 128.44"/>
  <g>
    <path d="M14.22,136.14v1.16h-3.2v1.99h3.2v1.17h-3.2v3.37h-1.49v-7.69h4.69Z"/>
    <path d="M17.96,138.59c.54,0,1.02.11,1.46.34.44.22.77.54,1.01.94.24.4.36.86.36,1.37s-.11,1-.34,1.4c-.23.4-.57.72-1.01.95-.45.23-.94.35-1.47.35s-1.03-.12-1.47-.35c-.44-.23-.78-.55-1-.95-.23-.4-.34-.87-.34-1.4s.12-.98.36-1.38c.24-.4.58-.71,1.01-.94.43-.22.91-.33,1.44-.33ZM16.56,141.24c0,.51.13.92.38,1.23.25.31.59.46,1.01.46s.79-.15,1.04-.44.38-.71.38-1.26-.13-.92-.38-1.21c-.26-.28-.6-.43-1.04-.43-.41,0-.75.15-1,.45-.26.3-.39.7-.39,1.19Z"/>
    <path d="M24.81,138.59c.18,0,.36.04.53.12.17.08.38.22.61.41l-.48,1.18c-.39-.29-.71-.44-.95-.44-.21,0-.42.08-.62.23-.2.16-.37.36-.49.62-.12.26-.18.51-.18.77v2.35h-1.35v-5.14h1.35v1.31h.02c.25-.5.49-.85.74-1.08.25-.22.52-.33.82-.33Z"/>
    <path d="M29.56,138.59c.4,0,.73.09,1,.28.27.19.48.43.61.75.29-.36.58-.62.87-.78.29-.16.6-.25.95-.25.54,0,.98.18,1.32.53.33.35.5.83.5,1.42v3.29h-1.35v-3.07c0-.36-.08-.64-.23-.84-.15-.21-.37-.31-.66-.31-.41,0-.81.27-1.19.8v3.42h-1.35v-3.09c0-.35-.08-.63-.24-.83-.16-.2-.38-.3-.65-.3-.22,0-.42.06-.61.19-.18.13-.38.33-.59.61v3.42h-1.35v-5.14h1.35v.72c.25-.28.5-.49.75-.62.25-.13.55-.2.88-.2Z"/>
    <path d="M38.43,138.59c.76,0,1.35.24,1.8.73s.66,1.15.66,2.01v.2h-3.64c.06.46.23.81.51,1.06.29.25.68.37,1.19.37.32,0,.63-.06.93-.17.3-.11.61-.28.93-.51v1.01c-.6.43-1.33.64-2.19.64-.81,0-1.47-.24-1.99-.73-.51-.49-.77-1.14-.77-1.95s.24-1.42.71-1.92c.48-.5,1.09-.74,1.86-.74ZM39.61,140.71c-.04-.37-.15-.67-.34-.88-.19-.21-.45-.32-.79-.32s-.62.1-.82.3-.34.5-.39.89h2.35Z"/>
    <path d="M44.89,138.59c.18,0,.36.04.53.12.17.08.38.22.61.41l-.48,1.18c-.39-.29-.71-.44-.95-.44-.21,0-.42.08-.62.23-.2.16-.37.36-.49.62-.12.26-.18.51-.18.77v2.35h-1.35v-5.14h1.35v1.31h.02c.25-.5.49-.85.74-1.08.25-.22.52-.33.82-.33Z"/>
    <path d="M48.06,136.14v7.69h-1.35v-7.69h1.35Z"/>
    <path d="M50.26,138.69l1.22,2.76,1.23-2.76h1.45l-3.55,7.74h-1.45l1.64-3.54-2-4.2h1.46Z"/>
    <path d="M59.67,136.14v7.69h-1.49v-7.69h1.49Z"/>
    <path d="M67.78,136.14v1.16h-2.73v6.53h-1.49v-6.53h-2.73v-1.16h6.95Z"/>
    <path d="M70.25,136.14l2.53,3.03,2.53-3.03h1.33v7.69h-1.49v-5.4h-.04l-2.22,2.71h-.21l-2.22-2.71h-.04v5.4h-1.49v-7.69h1.34Z"/>
    <path d="M82.89,136.14v4.48c0,.46.07.82.21,1.1.14.27.36.5.67.67.31.18.68.26,1.09.26.46,0,.84-.08,1.16-.25.32-.17.55-.39.7-.68.15-.29.22-.69.22-1.2v-4.38h1.49v4.57c0,1.04-.31,1.83-.93,2.39-.62.56-1.5.83-2.63.83-.71,0-1.33-.13-1.85-.38-.52-.25-.92-.62-1.2-1.1-.28-.48-.41-1.04-.41-1.69v-4.63h1.49Z"/>
    <path d="M92.87,138.59c.55,0,.99.18,1.32.54.33.36.49.84.49,1.43v3.27h-1.35v-3.13c0-.33-.08-.6-.24-.79-.16-.19-.38-.29-.65-.29-.21,0-.41.06-.59.18s-.39.33-.61.61v3.42h-1.35v-5.14h1.35v.72c.25-.29.51-.5.77-.63.26-.13.55-.19.86-.19Z"/>
    <path d="M96.72,136.31c.21,0,.39.08.54.23.15.15.23.33.23.54s-.07.38-.22.54c-.15.16-.33.23-.54.23s-.38-.08-.54-.23c-.15-.16-.23-.33-.23-.54,0-.21.08-.39.23-.54.15-.15.33-.22.53-.22ZM97.39,138.69v5.14h-1.35v-5.14h1.35Z"/>
    <path d="M99.59,138.69l1.23,2.98,1.21-2.98h1.44l-2.32,5.24h-.66l-2.36-5.24h1.45Z"/>
    <path d="M106.47,138.59c.76,0,1.35.24,1.8.73.44.48.66,1.15.66,2.01v.2h-3.64c.06.46.23.81.51,1.06s.68.37,1.19.37c.32,0,.63-.06.93-.17.3-.11.61-.28.93-.51v1.01c-.6.43-1.33.64-2.19.64-.81,0-1.47-.24-1.99-.73-.51-.49-.77-1.14-.77-1.95s.24-1.42.71-1.92c.48-.5,1.09-.74,1.86-.74ZM107.66,140.71c-.04-.37-.15-.67-.34-.88-.19-.21-.45-.32-.79-.32s-.62.1-.82.3c-.21.2-.34.5-.39.89h2.35Z"/>
    <path d="M112.93,138.59c.18,0,.36.04.53.12.17.08.38.22.61.41l-.48,1.18c-.39-.29-.71-.44-.95-.44-.21,0-.42.08-.62.23-.2.16-.37.36-.49.62-.12.26-.18.51-.18.77v2.35h-1.35v-5.14h1.35v1.31h.02c.25-.5.49-.85.74-1.08.25-.22.52-.33.82-.33Z"/>
    <path d="M116.37,138.59c.28,0,.55.03.8.1.25.06.51.17.79.31v1.08c-.26-.17-.53-.3-.83-.4-.29-.1-.56-.15-.79-.15-.19,0-.35.04-.46.11-.11.07-.17.18-.17.31,0,.08.05.15.14.23.09.08.34.22.75.42.59.3,1,.57,1.24.82.24.25.36.55.36.91,0,.5-.17.89-.52,1.17s-.81.43-1.4.43c-.37,0-.71-.04-1.03-.12-.32-.08-.58-.18-.79-.29v-1.13c.66.37,1.22.55,1.67.55.23,0,.42-.04.56-.12.14-.08.21-.19.21-.33,0-.08-.03-.15-.08-.22-.05-.07-.13-.13-.23-.2-.1-.07-.42-.24-.96-.5-.41-.2-.72-.41-.92-.65-.2-.23-.3-.51-.3-.83,0-.46.18-.82.53-1.09.36-.27.82-.41,1.4-.41Z"/>
    <path d="M119.98,136.31c.21,0,.39.08.54.23.15.15.23.33.23.54s-.07.38-.22.54c-.15.16-.33.23-.54.23s-.38-.08-.54-.23c-.15-.16-.23-.33-.23-.54,0-.21.08-.39.23-.54.15-.15.33-.22.53-.22ZM120.66,138.69v5.14h-1.35v-5.14h1.35Z"/>
    <path d="M123.47,137.32h.11v1.37h1.76v1.02h-1.76v2.37c0,.23.07.42.21.56.14.14.33.21.57.21.32,0,.68-.11,1.09-.34v1.08c-.49.22-.95.32-1.38.32-.58,0-1.03-.16-1.36-.47-.32-.32-.49-.74-.49-1.28v-2.46h-.8v-.22l2.04-2.17Z"/>
    <path d="M127.02,138.69l1.22,2.76,1.23-2.76h1.45l-3.55,7.74h-1.45l1.64-3.54-2-4.2h1.46Z"/>
    <path d="M131.84,142.32c.29,0,.53.11.7.32s.26.51.26.87c0,.48-.16.91-.48,1.28-.32.37-.72.6-1.2.68v-.29c.35-.3.53-.68.53-1.16v-.17c-.43-.08-.63-.33-.63-.75,0-.22.08-.4.23-.55.16-.15.35-.23.58-.23Z"/>
    <path d="M141.27,136.04c.95,0,1.89.21,2.82.63v1.36c-.93-.47-1.85-.71-2.75-.71-.56,0-1.06.11-1.5.34-.44.22-.78.55-1.02.97-.24.42-.36.89-.36,1.41,0,.79.26,1.42.78,1.9.52.48,1.21.72,2.07.72.23,0,.46-.02.67-.06.21-.04.47-.12.77-.23v-1.28h-1.27v-1.16h2.76v3.17c-.38.26-.83.47-1.36.62-.53.15-1.08.22-1.65.22-.81,0-1.55-.17-2.21-.5-.66-.33-1.17-.8-1.54-1.4-.37-.6-.55-1.27-.55-2.02s.19-1.43.56-2.04c.37-.61.89-1.08,1.56-1.42.67-.34,1.41-.51,2.23-.51Z"/>
    <path d="M146.97,138.69v3.18c0,.33.08.59.25.76.17.17.39.26.66.26.23,0,.45-.07.66-.21.21-.14.38-.34.51-.59v-3.41h1.35v5.14h-1.35v-.7c-.49.53-1.02.8-1.59.8s-.99-.18-1.33-.54c-.34-.36-.51-.83-.51-1.41v-3.29h1.35Z"/>
    <path d="M154.69,138.59c.18,0,.36.04.53.12.17.08.38.22.61.41l-.48,1.18c-.39-.29-.71-.44-.95-.44-.21,0-.42.08-.62.23-.2.16-.37.36-.49.62-.12.26-.18.51-.18.77v2.35h-1.35v-5.14h1.35v1.31h.02c.25-.5.49-.85.74-1.08.25-.22.52-.33.82-.33Z"/>
    <path d="M157.77,138.69v3.18c0,.33.08.59.25.76.17.17.39.26.66.26.23,0,.45-.07.66-.21.21-.14.38-.34.51-.59v-3.41h1.35v5.14h-1.35v-.7c-.49.53-1.02.8-1.59.8s-.99-.18-1.33-.54c-.34-.36-.51-.83-.51-1.41v-3.29h1.35Z"/>
    <path d="M167.3,138.69v.96h-.88c.14.18.24.34.3.49.06.15.09.31.09.48,0,.41-.15.79-.46,1.13-.27.3-.74.49-1.4.58-.36.04-.59.09-.71.15-.12.06-.17.14-.17.26,0,.11.07.19.21.25.14.06.37.11.68.16.77.12,1.34.32,1.71.57s.55.6.55,1.02c0,.54-.22.96-.67,1.25-.44.29-1.08.44-1.92.44-.79,0-1.42-.14-1.88-.41-.47-.28-.7-.64-.7-1.11,0-.65.45-1.11,1.35-1.35-.39-.17-.58-.39-.58-.67,0-.36.29-.61.88-.74v-.02c-.4-.11-.72-.31-.96-.59-.24-.28-.36-.61-.36-.99,0-.55.21-1,.63-1.34.42-.34.97-.51,1.64-.51h2.65ZM163.31,144.84c0,.46.46.69,1.38.69.4,0,.71-.06.93-.19.23-.13.34-.29.34-.5,0-.23-.13-.4-.38-.51s-.62-.17-1.08-.17c-.35,0-.63.07-.85.2-.22.13-.33.29-.33.49ZM163.63,140.55c0,.27.09.49.28.67.19.18.42.27.69.27s.51-.09.69-.28c.18-.19.27-.42.27-.7,0-.25-.09-.47-.28-.64s-.41-.26-.68-.26-.5.09-.69.28c-.19.19-.28.4-.28.66Z"/>
    <path d="M171.02,138.59c.18,0,.36.04.53.12.17.08.38.22.61.41l-.48,1.18c-.39-.29-.71-.44-.95-.44-.21,0-.42.08-.62.23-.2.16-.37.36-.49.62-.12.26-.18.51-.18.77v2.35h-1.35v-5.14h1.35v1.31h.02c.25-.5.49-.85.74-1.08.25-.22.52-.33.82-.33Z"/>
    <path d="M174.65,138.59c.66,0,1.17.14,1.51.42.35.28.52.67.52,1.18v2.52c0,.19.08.29.24.29.07,0,.16-.03.28-.09s.22-.12.3-.2v.78c-.47.29-.91.44-1.3.44-.24,0-.43-.04-.56-.12-.13-.08-.22-.22-.27-.43-.52.37-1.04.55-1.56.55-.37,0-.69-.12-.96-.37-.27-.25-.4-.55-.4-.9,0-.44.13-.79.4-1.05.26-.26.73-.48,1.39-.67l1.1-.32v-.24c0-.5-.3-.75-.91-.75-.31,0-.62.07-.93.21-.31.14-.59.35-.84.63v-1.22c.56-.44,1.23-.67,2-.67ZM173.82,142.45c0,.19.06.34.18.45.12.11.27.17.44.17.3,0,.59-.14.89-.41v-1.35c-.38.13-.67.25-.89.36-.21.11-.37.23-.47.35-.1.12-.15.26-.15.43Z"/>
    <path d="M181.22,138.59c.4,0,.73.09,1,.28.27.19.48.43.61.75.29-.36.58-.62.87-.78.29-.16.6-.25.95-.25.54,0,.98.18,1.32.53s.5.83.5,1.42v3.29h-1.35v-3.07c0-.36-.08-.64-.23-.84-.15-.21-.37-.31-.66-.31-.41,0-.81.27-1.19.8v3.42h-1.35v-3.09c0-.35-.08-.63-.24-.83-.16-.2-.38-.3-.65-.3-.22,0-.42.06-.61.19s-.38.33-.59.61v3.42h-1.35v-5.14h1.35v.72c.25-.28.5-.49.75-.62.25-.13.55-.2.88-.2Z"/>
  </g>
</svg>